#!OML:ASF H:\ManfredETheater\Project 1\Capture day 1\Session 1\subject.ASF
:FULLY-SPECIFIED
:DEGREES
235
root 4.63601 12.3333 5.84041 35.9271 -61.9769 -18.8912
lowerback 55.4991 4.05449 5.58371
upperback 11.7654 6.03802 2.06695
thorax -7.67282 1.93895 -2.71881
lowerneck -17.5407 33.5193 4.29343
upperneck 2.67697 53.3364 -0.165053
head 32.3328 -41.9043 143.126
rclavicle 2.46493e-014 3.65764e-014
rhumerus -19.4306 -18.1935 -60.8686
rradius 57.0417
rwrist -25.8809
rhand -28.2583 -2.23568
rfingers 7.12502
rthumb -1.63535 -32.2092
lclavicle 2.46493e-014 3.65764e-014
lhumerus -35.4332 -11.8456 87.259
lradius 124.089
lwrist -8.8797
lhand -31.8579 1.164
lfingers 7.12502
lthumb -5.11151 31.0823
rfemur -49.0207 -6.13545 -2.16653
rtibia 98.5299
rfoot -25.2749 1.72349
rtoes -53.3171
lfemur -100.253 28.7772 -32.5191
ltibia 107.417
lfoot -23.7639 -0.952031
ltoes 10.7348
236
root 4.56449 12.383 6.04256 36.1661 -60.313 -19.0439
lowerback 54.6343 4.13887 5.78226
upperback 11.6581 6.33817 2.3907
thorax -7.72422 2.08747 -2.59605
lowerneck -18.0707 33.1036 4.30841
upperneck 2.45261 53.0094 -0.316743
head 32.5124 -42.098 142.924
rclavicle -1.90833e-014 -9.93923e-015
rhumerus -20.0877 -18.5259 -61.4399
rradius 57.0397
rwrist -25.6107
rhand -28.7444 -2.51723
rfingers 7.12502
rthumb -2.1049 -32.4866
lclavicle -1.90833e-014 -9.93923e-015
lhumerus -34.41 -12.4794 88.3866
lradius 122.359
lwrist -8.96904
lhand -31.6462 1.17634
lfingers 7.12502
lthumb -4.9071 31.0995
rfemur -47.1939 -6.05804 -1.65124
rtibia 97.0275
rfoot -24.4075 1.58561
rtoes -53.2027
lfemur -99.6829 28.183 -32.5571
ltibia 107.477
lfoot -24.6101 -1.6916
ltoes 11.9217
237
root 4.48856 12.4393 6.25022 36.2449 -58.5634 -19.0306
lowerback 53.7836 4.15962 6.00522
upperback 11.5175 6.57844 2.6929
thorax -7.80488 2.21186 -2.48427
lowerneck -18.5886 32.7017 4.343
upperneck 2.23585 52.7228 -0.463142
head 32.6766 -42.2355 142.755
rclavicle -8.34896e-014 -1.27222e-014
rhumerus -20.8381 -18.8871 -62.0243
rradius 57.0552
rwrist -25.3485
rhand -29.1689 -2.74598
rfingers 7.12502
rthumb -2.51487 -32.7109
lclavicle -8.34896e-014 -1.27222e-014
lhumerus -33.4191 -13.1419 89.4853
lradius 120.466
lwrist -9.17033
lhand -31.4926 1.16536
lfingers 7.12502
lthumb -4.75876 31.0919
rfemur -45.1881 -6.02827 -1.11312
rtibia 95.3442
rfoot -23.5149 1.44952
rtoes -53.1099
lfemur -98.9102 27.5175 -32.531
ltibia 107.433
lfoot -25.5014 -2.48723
ltoes 13.1292
238
root 4.40737 12.5014 6.46282 36.2502 -56.7661 -18.9314
lowerback 52.9343 4.15335 6.22089
upperback 11.345 6.78182 2.97361
thorax -7.91372 2.32134 -2.37909
lowerneck -19.1104 32.3072 4.41124
upperneck 2.01311 52.4137 -0.599593
head 32.8267 -42.3622 142.598
rclavicle 9.22361e-014 2.92213e-014
rhumerus -21.6752 -19.2916 -62.6256
rradius 57.0806
rwrist -25.1074
rhand -29.5268 -2.88017
rfingers 7.12502
rthumb -2.86045 -32.8407
lclavicle 9.22361e-014 2.92213e-014
lhumerus -32.4625 -13.8105 90.531
lradius 118.396
lwrist -9.54986
lhand -31.4019 1.11268
lfingers 7.12502
lthumb -4.67127 31.0412
rfemur -43.0712 -5.97892 -0.540922
rtibia 93.4988
rfoot -22.5288 1.35748
rtoes -53.0322
lfemur -97.9925 26.8438 -32.4859
ltibia 107.298
lfoot -26.4114 -3.28858
ltoes 14.3763
239
root 4.32105 12.5681 6.67977 36.2555 -54.9343 -18.7979
lowerback 52.0543 4.13325 6.4256
upperback 11.1437 6.9597 3.23453
thorax -8.04305 2.42124 -2.28172
lowerneck -19.6353 31.905 4.49335
upperneck 1.79005 52.0811 -0.72911
head 32.9965 -42.5194 142.417
rclavicle -8.74653e-015 3.91606e-014
rhumerus -22.5876 -19.7417 -63.2379
rradius 57.1056
rwrist -24.8816
rhand -29.8432 -2.9107
rfingers 7.12502
rthumb -3.16599 -32.8669
lclavicle -8.74653e-015 3.91606e-014
lhumerus -31.5395 -14.4658 91.5075
lradius 116.149
lwrist -10.1203
lhand -31.4463 1.0526
lfingers 7.12502
lthumb -4.71408 30.9802
rfemur -40.9269 -5.86179 0.0824262
rtibia 91.5221
rfoot -21.3767 1.33491
rtoes -52.9603
lfemur -97.0188 26.1831 -32.4582
ltibia 107.098
lfoot -27.2936 -4.05377
ltoes 15.6185
240
root 4.23026 12.639 6.90132 36.2827 -53.0701 -18.6502
lowerback 51.1461 4.09357 6.6333
upperback 10.913 7.11135 3.4744
thorax -8.19087 2.51086 -2.19908
lowerneck -20.1688 31.4942 4.5769
upperneck 1.56795 51.7368 -0.855008
head 33.1788 -42.6919 142.222
rclavicle -1.27222e-014 -4.05521e-014
rhumerus -23.5568 -20.2246 -63.8538
rradius 57.1163
rwrist -24.6545
rhand -30.154 -2.85809
rfingers 7.12502
rthumb -3.46622 -32.8097
lclavicle -1.27222e-014 -4.05521e-014
lhumerus -30.6512 -15.0892 92.3997
lradius 113.733
lwrist -10.8344
lhand -31.6419 0.986757
lfingers 7.12502
lthumb -4.90294 30.91
rfemur -38.8015 -5.65363 0.765357
rtibia 89.437
rfoot -19.9817 1.41241
rtoes -52.8755
lfemur -96.0241 25.5429 -32.4661
ltibia 106.847
lfoot -28.1112 -4.74751
ltoes 16.8457
